<svg xmlns="http://www.w3.org/2000/svg" viewBox="0 0 1920 1080" fill="none">
  <defs>
    <linearGradient id="sky" x1="0" y1="0" x2="0" y2="1">
      <stop offset="0%" stop-color="#1a2332"/>
      <stop offset="100%" stop-color="#0d1218"/>
    </linearGradient>
    <linearGradient id="road" x1="0" y1="0" x2="1" y2="0">
      <stop offset="0%" stop-color="#10E1B1" stop-opacity="0"/>
      <stop offset="50%" stop-color="#10E1B1" stop-opacity="0.35"/>
      <stop offset="100%" stop-color="#2D8CFF" stop-opacity="0"/>
    </linearGradient>
  </defs>
  <rect width="1920" height="1080" fill="url(#sky)"/>
  <path d="M0 720 Q480 680 960 640 T1920 600 L1920 1080 L0 1080Z" fill="#151820" opacity="0.9"/>
  <path d="M-100 780 C400 760 800 720 1200 680 S1800 640 2100 620" stroke="url(#road)" stroke-width="4" fill="none"/>
  <path d="M-100 820 C420 800 820 760 1220 720 S1820 680 2100 660" stroke="url(#road)" stroke-width="2" fill="none" opacity="0.5"/>
  <rect x="200" y="520" width="280" height="120" rx="8" fill="#20262f" stroke="#10E1B1" stroke-opacity="0.3"/>
  <rect x="220" y="540" width="80" height="60" rx="4" fill="#10E1B1" opacity="0.15"/>
  <text x="960" y="540" text-anchor="middle" fill="#edf3f1" opacity="0.25" font-family="system-ui,sans-serif" font-size="28" font-weight="600">Frotec+ · Frota em movimento</text>
  <text x="960" y="580" text-anchor="middle" fill="#10E1B1" opacity="0.4" font-family="system-ui,sans-serif" font-size="16">Substitua por hero-bg.mp4</text>
</svg>
